<?xml version="1.0" encoding="iso-8859-1"?>
<!-- Generator: Adobe Illustrator 19.0.0, SVG Export Plug-In . SVG Version: 6.00 Build 0)  -->
<svg version="1.1" id="Capa_1" xmlns="http://www.w3.org/2000/svg" xmlns:xlink="http://www.w3.org/1999/xlink" x="0px" y="0px"
	 viewBox="0 0 201.387 201.387" style="enable-background:new 0 0 201.387 201.387;" xml:space="preserve">
<path style="fill:#602F75;" d="M100.693,201.387c-40.709,0-81.92-8.207-81.92-23.893v-17.865c0-1.884,1.529-3.413,3.413-3.413
	c1.884,0,3.413,1.529,3.413,3.413v17.865c0,6.958,29.254,17.067,75.093,17.067s75.093-10.109,75.093-17.067V98.258
	c0-1.884,1.529-3.413,3.413-3.413c1.884,0,3.413,1.529,3.413,3.413v79.235C182.613,193.179,141.402,201.387,100.693,201.387z"/>
<path style="fill:#FFFFFF;" d="M179.2,81.92c0-43.358-35.149-78.507-78.507-78.507S22.187,38.562,22.187,81.92v63.71"/>
<path style="fill:#602F75;" d="M22.187,149.043c-1.884,0-3.413-1.529-3.413-3.413V81.92c0-45.172,36.75-81.92,81.92-81.92
	s81.92,36.748,81.92,81.92c0,1.884-1.529,3.413-3.413,3.413c-1.884,0-3.413-1.529-3.413-3.413c0-41.407-33.686-75.093-75.093-75.093
	S25.6,40.513,25.6,81.92v63.71C25.6,147.516,24.071,149.043,22.187,149.043z"/>
<path style="fill:#00E7FF;" d="M100.693,30.72c-37.702,0-68.267,20.349-68.267,45.452v55.332c0,6.548,30.565,11.856,68.267,11.856
	s68.267-5.308,68.267-11.856V76.172C168.96,51.069,138.395,30.72,100.693,30.72z"/>
<path style="fill:#602F75;" d="M100.693,146.773c-18.423,0-35.775-1.251-48.855-3.523c-20.231-3.514-22.825-8.124-22.825-11.747
	V76.172c0-26.945,32.155-48.865,71.68-48.865s71.68,21.92,71.68,48.865v55.332c0,3.623-2.594,8.233-22.825,11.747
	C136.468,145.522,119.117,146.773,100.693,146.773z M35.84,131.145c2.582,3.07,24.241,8.801,64.853,8.801s62.271-5.731,64.853-8.801
	V76.172c0-23.18-29.094-42.039-64.853-42.039S35.84,52.992,35.84,76.172V131.145z"/>
<g>
	<path style="fill:#FFFFFF;" d="M46.08,82.22c-1.884,0-3.413-1.529-3.413-3.413c0-9.737,5.56-18.954,15.655-25.957
		c1.551-1.073,3.676-0.688,4.75,0.86c1.073,1.548,0.689,3.674-0.86,4.75c-8.202,5.688-12.72,12.913-12.72,20.347
		C49.493,80.691,47.964,82.22,46.08,82.22z"/>
	<path style="fill:#FFFFFF;" d="M70.159,53.668c-1.328,0-2.589-0.78-3.142-2.079c-0.739-1.734,0.07-3.738,1.804-4.477
		c9.453-4.024,20.473-6.153,31.872-6.153c1.884,0,3.413,1.529,3.413,3.413c0,1.884-1.529,3.413-3.413,3.413
		c-10.487,0-20.584,1.939-29.198,5.606C71.059,53.581,70.607,53.668,70.159,53.668z"/>
</g>
<g>
	<path style="fill:#EA3457;" d="M110.933,163.84c0-5.656-4.584-10.24-10.24-10.24s-10.24,4.584-10.24,10.24H110.933z"/>
	<path style="fill:#EA3457;" d="M110.933,167.253h-20.48c-1.884,0-3.413-1.529-3.413-3.413c0-7.528,6.125-13.653,13.653-13.653
		s13.653,6.125,13.653,13.653C114.347,165.724,112.818,167.253,110.933,167.253z M94.783,160.427h11.822
		c-1.183-2.038-3.389-3.413-5.91-3.413C98.174,157.013,95.964,158.389,94.783,160.427z"/>
</g>
<g>
	<path style="fill:#FFE600;" d="M110.933,174.08c0,5.656-4.584,10.24-10.24,10.24s-10.24-4.584-10.24-10.24H110.933z"/>
	<path style="fill:#FFE600;" d="M100.693,187.733c-7.528,0-13.653-6.125-13.653-13.653c0-1.884,1.529-3.413,3.413-3.413h20.48
		c1.884,0,3.413,1.529,3.413,3.413C114.347,181.608,108.221,187.733,100.693,187.733z M94.783,177.493
		c1.183,2.038,3.389,3.413,5.91,3.413c2.521,0,4.729-1.376,5.91-3.413H94.783z"/>
</g>
<g>
</g>
<g>
</g>
<g>
</g>
<g>
</g>
<g>
</g>
<g>
</g>
<g>
</g>
<g>
</g>
<g>
</g>
<g>
</g>
<g>
</g>
<g>
</g>
<g>
</g>
<g>
</g>
<g>
</g>
</svg>
