<svg height="511pt" viewBox="-112 0 511 511.99913" width="511pt" xmlns="http://www.w3.org/2000/svg"><path d="m172.453125 252.617188h34.128906c25.179688 0 46.210938-19.09375 48.757813-44.144532 1.84375-18.125 2.675781-57.464844 2.550781-75.84375-.238281-35.789062-19.601563-66.980468-48.332031-84.050781l-12.808594 24.421875c-35.914062-13.761719-67.511719-14.621094-103.835938-.832031l-13.773437-23.539063c-28.679687 17.082032-48.007813 48.25-48.246094 84-.121093 18.378906.707031 57.71875 2.550781 75.84375 2.546876 25.050782 23.578126 44.144532 48.757813 44.144532h34.132813" fill="#545454"/><path d="m257.890625 132.628906c-.238281-35.785156-19.601563-66.980468-48.332031-84.050781l-7.273438 18.984375c15.527344 17.277344 25.054688 40.042969 25.222656 65.066406.121094 18.378906-.707031 57.71875-2.550781 75.84375-2.546875 25.050782-23.578125 44.144532-48.757812 44.144532h30.382812c25.179688 0 46.210938-19.09375 48.757813-44.144532 1.84375-18.125 2.675781-57.464844 2.550781-75.84375zm0 0" fill="#404040"/><path d="m88.65625 73.707031-20.339844-53.59375c-1.121094-2.945312.414063-6.238281 3.386719-7.289062 48.449219-17.105469 97.304687-17.097657 145.386719.019531 2.96875 1.058594 4.492187 4.359375 3.363281 7.304688l-20.511719 53.527343c-1.085937 2.835938-4.226562 4.273438-7.097656 3.277344-32.445312-11.269531-64.3125-11.253906-97.09375.050781-2.871094.992188-6.015625-.457031-7.09375-3.296875zm0 0" fill="#fff"/><path d="m194.84375 6.171875-26.359375 64.425781s2.207031-.683594 24.425781 6.554688c2.835938.925781 5.90625-.535156 6.972656-3.324219l20.570313-53.679687c1.128906-2.945313-.394531-6.246094-3.371094-7.304688-7.394531-2.628906-14.808593-4.847656-22.238281-6.671875zm0 0" fill="#e3e2e2"/><path d="m154.53125 24.597656h-2.230469v-2.230468c0-4.367188-3.539062-7.910157-7.90625-7.910157-4.367187 0-7.910156 3.542969-7.910156 7.910157v2.230468h-2.230469c-4.367187 0-7.910156 3.539063-7.910156 7.90625 0 4.367188 3.542969 7.910156 7.910156 7.910156h2.230469v2.230469c0 4.367188 3.542969 7.910157 7.910156 7.910157 4.367188 0 7.90625-3.542969 7.90625-7.910157v-2.230469h2.230469c4.367188 0 7.910156-3.542968 7.910156-7.910156 0-4.367187-3.542968-7.90625-7.910156-7.90625zm0 0" fill="#ef2d57"/><path d="m287.179688 433.214844c4.097656 16.816406-3.433594 34.289062-18.425782 42.933594-82.90625 47.800781-165.816406 47.800781-248.722656 0-14.988281-8.644532-22.523438-26.117188-18.425781-42.933594l22.355469-91.753906c9.628906-39.507813 45.019531-67.308594 85.679687-67.308594h6.695313v-39.660156c8.398437 4.371093 17.933593 6.855468 28.058593 6.855468 10.121094 0 19.660157-2.484375 28.058594-6.855468v39.660156h6.695313c40.660156 0 76.050781 27.800781 85.675781 67.308594zm0 0" fill="#61a1dc"/><path d="m125.769531 238.421875c-3.273437-1.054687-6.429687-2.363281-9.433593-3.929687v6.136718c3.230468-.492187 6.386718-1.226562 9.433593-2.207031zm0 0" fill="#558cbf"/><path d="m287.179688 433.214844-11.753907-48.253906-5.953125-24.425782-4.648437-19.074218c-9.625-39.503907-45.015625-67.308594-85.675781-67.308594h-6.695313v-39.660156c-8.398437 4.371093-17.9375 6.855468-28.058594 6.855468-3.128906 0-6.191406-.261718-9.191406-.71875v33.523438h6.695313c40.660156 0 76.050781 27.804687 85.679687 67.308594l4.644531 19.074218 5.953125 24.425782 11.757813 48.253906c4.09375 16.816406-3.4375 34.289062-18.429688 42.933594-35.246094 20.320312-70.488281 31.996093-105.734375 35.039062 47.660157 4.117188 95.324219-7.558594 142.984375-35.039062 14.992188-8.644532 22.523438-26.117188 18.425782-42.933594zm0 0" fill="#558cbf"/><path d="m93.820312 278.085938 40.320313 69.832031c4.554687 7.894531 15.949219 7.894531 20.503906 0l40.320313-69.832031-.160156-2.527344c-5.097657-.917969-10.332032-1.40625-15.660157-1.40625h-6.695312v-39.660156c-8.398438 4.371093-17.933594 6.855468-28.058594 6.855468-10.121094 0-19.660156-2.484375-28.058594-6.855468v39.660156h-6.691406c-6.277344 0-12.429687.667968-18.378906 1.933594zm0 0" fill="#efb490"/><path d="m172.453125 256.046875v-21.554687c-8.398437 4.371093-17.9375 6.855468-28.058594 6.855468-10.125 0-19.664062-2.484375-28.058593-6.855468v21.554687c8.582031 3.800781 18.066406 5.929687 28.058593 5.929687 9.988281 0 19.476563-2.128906 28.058594-5.929687zm0 0" fill="#d49f80"/><path d="m75 178.167969v2.125c0 38.324219 31.066406 69.394531 69.394531 69.394531 38.324219 0 69.394531-31.070312 69.394531-69.394531v-59.910157c-24.433593-10.046874-43.566406-29.71875-43.566406-29.71875s-38.109375 29.160157-95.222656 29.71875zm0 0" fill="#efb490"/><path d="m170.222656 90.664062s-7.875 6.011719-21.796875 12.628907c7.410157 6.542969 21.472657 17.691406 37.953125 24.472656v59.90625c0 27.035156-15.46875 50.441406-38.027344 61.894531 36.484376-2.050781 65.4375-32.277344 65.4375-69.273437v-59.910157c-24.433593-10.046874-43.566406-29.71875-43.566406-29.71875zm0 0" fill="#d49f80"/></svg>