<svg height="512pt" viewBox="0 0 512 512.001" width="512pt" xmlns="http://www.w3.org/2000/svg"><path d="m14.992188 512c-3.921876 0-7.75-1.539062-10.601563-4.390625-3.847656-3.851563-5.308594-9.484375-3.8125-14.71875l42.398437-148.390625c1.457032-5.105469 5.511719-9.058594 10.652344-10.394531 5.140625-1.328125 10.605469.15625 14.359375 3.914062l105.992188 105.992188c3.753906 3.757812 5.242187 9.21875 3.910156 14.359375-1.332031 5.144531-5.285156 9.195312-10.390625 10.652344l-148.390625 42.398437c-1.359375.390625-2.746094.578125-4.117187.578125zm0 0" fill="#f5f0eb"/><path d="m177.890625 458.371094c1.332031-5.140625-.15625-10.601563-3.910156-14.359375l-52.996094-52.996094-116.59375 116.59375c2.851563 2.851563 6.679687 4.390625 10.601563 4.390625 1.371093 0 2.757812-.1875 4.117187-.578125l148.390625-42.398437c5.105469-1.457032 9.058594-5.511719 10.390625-10.652344zm0 0" fill="#e0d2cd"/><path d="m346.972656 37.835938-300.183594 300.183593c-5.855468 5.855469-5.855468 15.34375 0 21.199219l105.992188 105.992188c2.929688 2.929687 6.765625 4.390624 10.601562 4.390624 3.832032 0 7.671876-1.460937 10.597657-4.390624l300.1875-300.183594zm0 0" fill="#0051bd"/><path d="m410.570312 101.429688-310.785156 310.785156 52.996094 52.996094c2.929688 2.929687 6.765625 4.390624 10.601562 4.390624 3.835938 0 7.671876-1.460937 10.597657-4.390624l300.1875-300.183594zm0 0" fill="#00347b"/><path d="m444.929688 195.117188 53.847656-53.847657c8.53125-8.53125 13.226562-19.898437 13.222656-32.007812-.003906-12.101563-4.707031-23.46875-13.242188-32l-64.019531-64.019531c-8.535156-8.535157-19.898437-13.23828175-32-13.242188-.007812 0-.015625 0-.023437 0-12.097656 0-23.457032 4.695312-31.984375 13.222656l-53.480469 53.480469zm0 0" fill="#ff5e93"/><path d="m512 109.261719c-.003906-12.101563-4.707031-23.46875-13.242188-32l-32.007812-32.011719-85.660156 85.660156 63.839844 64.207032 53.847656-53.847657c8.53125-8.53125 13.226562-19.898437 13.222656-32.007812zm0 0" fill="#d11372"/></svg>