<svg id="Слой_1" data-name="Слой 1" xmlns="http://www.w3.org/2000/svg" viewBox="0 0 115.46 115.46"><defs><style>.cls-1{fill:#e94a63;}.cls-2{fill:#fff;}</style></defs><title>logo</title><path class="cls-1" d="M115.46,57.73A57.73,57.73,0,1,1,57.73,0a57.73,57.73,0,0,1,57.73,57.73"/><path class="cls-2" d="M48.89,88.71,46.4,87l2.49-1.72a1.2,1.2,0,0,0,.42-.68,1,1,0,0,0-.15-.78L48,82a.87.87,0,0,0-.7-.39,1.13,1.13,0,0,0-.85.15L44.08,83.4V80.9a1.09,1.09,0,0,0-.32-.74,1,1,0,0,0-.74-.39l-2.13,0a.79.79,0,0,0-.25,0,1.26,1.26,0,0,0-.9,1.1v2.5l-2.31-1.61a1.12,1.12,0,0,0-.85-.16.87.87,0,0,0-.7.38l-1.21,1.75a1,1,0,0,0-.16.78,1.2,1.2,0,0,0,.41.69L37.47,87l-2.53,1.78a1.19,1.19,0,0,0-.41.69,1,1,0,0,0,.16.78L35.9,92a.87.87,0,0,0,.7.38,1.13,1.13,0,0,0,.85-.16l2.31-1.61v2.49a1.26,1.26,0,0,0,.9,1.1.73.73,0,0,0,.25,0l2.13,0a1,1,0,0,0,.74-.39,1.09,1.09,0,0,0,.32-.74V90.58l2.33,1.58a1.13,1.13,0,0,0,.85.15.87.87,0,0,0,.7-.39l1.19-1.77a1,1,0,0,0,.15-.78,1.2,1.2,0,0,0-.42-.68"/><path class="cls-2" d="M26.18,49.61q0,5.12-5,5.12H16.74a2.27,2.27,0,0,1-1-.19,2.11,2.11,0,0,1-.69-.5,2,2,0,0,1-.41-.71,2.54,2.54,0,0,1-.14-.84,2.48,2.48,0,0,1,.14-.81A2,2,0,0,1,15.1,51a2.2,2.2,0,0,1,.71-.5,2.34,2.34,0,0,1,1-.19H21.4a.82.82,0,0,0,.67-.26.87.87,0,0,0,.22-.56,1,1,0,0,0-.22-.59.81.81,0,0,0-.67-.27H19.12a4.91,4.91,0,0,1-3.55-1.15,4.85,4.85,0,0,1-1.19-3.61q0-5.16,5.05-5.16H23a2.48,2.48,0,0,1,1,.19,2.34,2.34,0,0,1,.73.5,2,2,0,0,1,.45.7,2.32,2.32,0,0,1,.15.81,2.39,2.39,0,0,1-.15.82,2.07,2.07,0,0,1-.45.73,2.17,2.17,0,0,1-.74.51,2.52,2.52,0,0,1-1,.19H19.14a.79.79,0,0,0-.66.26.93.93,0,0,0-.21.58.89.89,0,0,0,.21.56.79.79,0,0,0,.67.26h2.29A4.88,4.88,0,0,1,25,45.95a5,5,0,0,1,1.17,3.66"/><path class="cls-2" d="M44.14,40.92a2.46,2.46,0,0,0-.2-1,2.14,2.14,0,0,0-.52-.74,2.34,2.34,0,0,0-.76-.46,2.45,2.45,0,0,0-.88-.16,2.65,2.65,0,0,0-1.18.29,2.93,2.93,0,0,0-1,.83l-3.18,4-3.16-4a2.91,2.91,0,0,0-1-.83A2.73,2.73,0,0,0,31,38.56a2.43,2.43,0,0,0-.88.16,2.2,2.2,0,0,0-.74.46,2.17,2.17,0,0,0-.51.74,2.46,2.46,0,0,0-.2,1V52.6a2,2,0,0,0,.66,1.66,2.36,2.36,0,0,0,1.58.56,2.27,2.27,0,0,0,1.53-.57,2.06,2.06,0,0,0,.66-1.65V45.72l1.65,2.15a2,2,0,0,0,1.62.94,1.93,1.93,0,0,0,.87-.21,2.35,2.35,0,0,0,.8-.73l1.62-2.15V52.6c0,.08,0,.16,0,.24V74.09a2.21,2.21,0,0,0,4.42,0V52.7s0-.06,0-.1Z"/><path class="cls-2" d="M52.22,48.12h2.15l-1-2.9Zm3.36,3.5H50.83l-.71,1.76a2.45,2.45,0,0,1-.85,1.08,1.92,1.92,0,0,1-1.1.35,2.65,2.65,0,0,1-.88-.15,2.56,2.56,0,0,1-.77-.42,2.07,2.07,0,0,1-.55-.66,1.82,1.82,0,0,1-.21-.87,2.11,2.11,0,0,1,.16-.89l5.44-11.93a2.74,2.74,0,0,1,.71-1,2.06,2.06,0,0,1,1.35-.37,2,2,0,0,1,1.32.37,2.44,2.44,0,0,1,.7,1l5,11.91a2.46,2.46,0,0,1,.16.89,1.78,1.78,0,0,1-.21.84,2.15,2.15,0,0,1-.54.66,2.58,2.58,0,0,1-.76.43,2.54,2.54,0,0,1-.87.16,2,2,0,0,1-2-1.44Z"/><path class="cls-2" d="M67.49,48.65a2.39,2.39,0,0,1-.23-.57,2.51,2.51,0,0,1-.09-.84,2,2,0,0,1,.46-1.38,1.59,1.59,0,0,1,1.26-.51h.32a1.29,1.29,0,0,0,.91-.32,1.32,1.32,0,0,0,.34-1,1,1,0,0,0-.35-.87,1.81,1.81,0,0,0-1.06-.25H66.65v9.56a2.22,2.22,0,1,1-4.44,0V40.87q0-2.24,2.15-2.24h4.8a6.45,6.45,0,0,1,2.44.42,4.91,4.91,0,0,1,1.69,1.11,4.39,4.39,0,0,1,1,1.57,5.23,5.23,0,0,1,.32,1.8,4.8,4.8,0,0,1-.79,2.79,4.29,4.29,0,0,1-1.91,1.6L74,51.25a2.9,2.9,0,0,1,.43,1.37,2,2,0,0,1-.21.89,2.15,2.15,0,0,1-.55.7,2.6,2.6,0,0,1-.78.45,2.47,2.47,0,0,1-.87.16,2.18,2.18,0,0,1-1-.28,2,2,0,0,1-.83-.87Z"/><path class="cls-2" d="M83.57,52.6a2.05,2.05,0,0,1-.66,1.66,2.37,2.37,0,0,1-1.58.56,2.29,2.29,0,0,1-1.54-.56,2.07,2.07,0,0,1-.65-1.66V43.11H77.58a2.06,2.06,0,0,1-1.63-.66,2.41,2.41,0,0,1,0-3.14,2.06,2.06,0,0,1,1.63-.66h7.5a2.11,2.11,0,0,1,1.65.66,2.37,2.37,0,0,1,0,3.14,2.11,2.11,0,0,1-1.65.66H83.57Z"/><path class="cls-2" d="M96.33,39.71a2.16,2.16,0,0,1,2.74-1,2.59,2.59,0,0,1,.73.46,2.24,2.24,0,0,1,.51.69,1.93,1.93,0,0,1,.19.86,2.3,2.3,0,0,1-.37,1.21l-3.57,5.81V52.6a2,2,0,0,1-.66,1.66,2.45,2.45,0,0,1-3.12,0,2.06,2.06,0,0,1-.65-1.66V47.75l-3.61-5.83a2.07,2.07,0,0,1-.37-1.12,2,2,0,0,1,.19-.87,2.42,2.42,0,0,1,.51-.72,2.33,2.33,0,0,1,.73-.48,2.23,2.23,0,0,1,.87-.17,2.25,2.25,0,0,1,1,.26,2.08,2.08,0,0,1,.87.86l2,3.48Z"/><path class="cls-2" d="M29.79,73.93a2.05,2.05,0,0,1-.66,1.66,2.45,2.45,0,0,1-3.12,0,2.07,2.07,0,0,1-.65-1.66V62.09A2,2,0,0,1,26,60.47a2.41,2.41,0,0,1,3.12,0,2,2,0,0,1,.66,1.62v3.8l3.63-5.14a1.77,1.77,0,0,1,.72-.66,2.37,2.37,0,0,1,1-.18,2.25,2.25,0,0,1,1.7.63,2.2,2.2,0,0,1,.61,1.59,2.5,2.5,0,0,1-.11.75,1.54,1.54,0,0,1-.39.64l-3.73,4.21L37,72.52a2.2,2.2,0,0,1,.53,1.39,2.14,2.14,0,0,1-.64,1.63,2.32,2.32,0,0,1-1.67.61,2.25,2.25,0,0,1-1-.21,1.94,1.94,0,0,1-.77-.66l-3.68-5.14Z"/><path class="cls-2" d="M51.45,71.61A3.58,3.58,0,0,0,53,71.28a3.36,3.36,0,0,0,1.12-.83,3.5,3.5,0,0,0,.67-1.19A4.21,4.21,0,0,0,55,67.9a3.65,3.65,0,0,0-.22-1.25A3.12,3.12,0,0,0,53,64.79a4,4,0,0,0-1.6-.3H51v7.11Zm-4.85-9.4a1.89,1.89,0,0,1,.21-.85,2.5,2.5,0,0,1,.54-.72,2.64,2.64,0,0,1,.74-.49,2,2,0,0,1,.82-.18h2.15a8.81,8.81,0,0,1,3.65.71,7.88,7.88,0,0,1,2.61,1.85,7.67,7.67,0,0,1,1.56,2.62,8.75,8.75,0,0,1,0,5.91,7.5,7.5,0,0,1-1.51,2.54,7.37,7.37,0,0,1-2.49,1.8,8.32,8.32,0,0,1-3.47.67H48.91a2.34,2.34,0,0,1-1.68-.59,2.15,2.15,0,0,1-.63-1.65Z"/><path class="cls-2" d="M72.38,70.85q0,5.12-5,5.12H62.95a2.27,2.27,0,0,1-1-.19,2.08,2.08,0,0,1-.69-.5,2,2,0,0,1-.41-.71,2.53,2.53,0,0,1,0-1.65,2,2,0,0,1,.42-.71,2.2,2.2,0,0,1,.71-.5,2.34,2.34,0,0,1,1-.19h4.62a.82.82,0,0,0,.67-.26.87.87,0,0,0,.22-.56,1,1,0,0,0-.22-.59.81.81,0,0,0-.67-.27H65.32a4.91,4.91,0,0,1-3.55-1.15A4.85,4.85,0,0,1,60.59,65q0-5.16,5.05-5.16h3.57a2.48,2.48,0,0,1,1,.19,2.34,2.34,0,0,1,.73.5,2,2,0,0,1,.45.7,2.32,2.32,0,0,1,.15.81,2.38,2.38,0,0,1-.15.82,2.07,2.07,0,0,1-.45.73,2.17,2.17,0,0,1-.74.51,2.52,2.52,0,0,1-1,.19H65.34a.79.79,0,0,0-.66.26.93.93,0,0,0-.21.58.89.89,0,0,0,.21.56.79.79,0,0,0,.67.26h2.29a4.88,4.88,0,0,1,3.58,1.17,5,5,0,0,1,1.17,3.66"/></svg>